HIERARCHY
ROOT Hips
{
	OFFSET	0.00	0.00	0.00
	CHANNELS 6 Xposition Yposition Zposition Zrotation Xrotation Yrotation
	JOINT LeftUpLeg
	{
		OFFSET	 0.126116	-0.014019	-0.065224
		CHANNELS 3 Zrotation Xrotation Yrotation
		JOINT LeftLeg
		{
			OFFSET	 0.000000	 0.000000	 0.569914
			CHANNELS 3 Zrotation Xrotation Yrotation
			JOINT LeftFoot
			{
				OFFSET	 0.000000	 0.000000	 0.544423
				CHANNELS 3 Zrotation Xrotation Yrotation
				JOINT LeftToeBase
				{
					OFFSET	 0.000000	 0.000000	 0.207117
					CHANNELS 3 Zrotation Xrotation Yrotation
					End Site
					{
						OFFSET	 0.000000	 0.000000	 0.207117
					}
				}
			}
		}
	}
	JOINT RightUpLeg
	{
		OFFSET	-0.124023	-0.008373	-0.065224
		CHANNELS 3 Zrotation Xrotation Yrotation
		JOINT RightLeg
		{
			OFFSET	 0.000000	 0.000000	 0.570047
			CHANNELS 3 Zrotation Xrotation Yrotation
			JOINT RightFoot
			{
				OFFSET	 0.000000	 0.000000	 0.544354
				CHANNELS 3 Zrotation Xrotation Yrotation
				JOINT RightToeBase
				{
					OFFSET	 0.000000	 0.000000	 0.207540
					CHANNELS 3 Zrotation Xrotation Yrotation
					End Site
					{
						OFFSET	 0.000000	 0.000000	 0.207540
					}
				}
			}
		}
	}
	JOINT Spine
	{
		OFFSET	 0.000184	-0.007763	 0.117403
		CHANNELS 3 Zrotation Xrotation Yrotation
		JOINT Spine1
		{
			OFFSET	 0.000000	 0.000000	 0.137269
			CHANNELS 3 Zrotation Xrotation Yrotation
			JOINT Spine2
			{
				OFFSET	 0.000000	 0.000000	 0.156879
				CHANNELS 3 Zrotation Xrotation Yrotation
				JOINT LeftShoulder
				{
					OFFSET	 0.080501	-0.002496	 0.160144
					CHANNELS 3 Zrotation Xrotation Yrotation
					JOINT LeftArm
					{
						OFFSET	 0.000000	 0.000000	 0.164363
						CHANNELS 3 Zrotation Xrotation Yrotation
						JOINT LeftForeArm
						{
							OFFSET	 0.000000	 0.000000	 0.364576
							CHANNELS 3 Zrotation Xrotation Yrotation
							JOINT LeftHand
							{
								OFFSET	 0.000000	 0.000000	 0.360812
								CHANNELS 3 Zrotation Xrotation Yrotation
								JOINT LeftHandIndex1
								{
									OFFSET	 0.000000	 0.000000	 0.086006
									CHANNELS 3 Zrotation Xrotation Yrotation
									JOINT LeftHandIndex2
									{
										OFFSET	 0.000000	 0.000000	 0.047236
										CHANNELS 3 Zrotation Xrotation Yrotation
										JOINT LeftHandIndex3
										{
											OFFSET	-0.004284	-0.000551	 0.038166
											CHANNELS 3 Zrotation Xrotation Yrotation
											End Site
											{
												OFFSET	-0.004284	-0.000551	 0.038166
											}
										}
									}
								}
							}
						}
					}
				}
				JOINT Neck
				{
					OFFSET	 0.000000	 0.000000	 0.176489
					CHANNELS 3 Zrotation Xrotation Yrotation
					JOINT Head
					{
						OFFSET	 0.000000	-0.001747	 0.077940
						CHANNELS 3 Zrotation Xrotation Yrotation
						End Site
						{
							OFFSET	 0.000000	-0.001747	 0.077940
						}
					}
				}
				JOINT RightShoulder
				{
					OFFSET	-0.080363	 0.000306	 0.159706
					CHANNELS 3 Zrotation Xrotation Yrotation
					JOINT RightArm
					{
						OFFSET	 0.000000	 0.000000	 0.164196
						CHANNELS 3 Zrotation Xrotation Yrotation
						JOINT RightForeArm
						{
							OFFSET	 0.000000	 0.000000	 0.365611
							CHANNELS 3 Zrotation Xrotation Yrotation
							JOINT RightHand
							{
								OFFSET	 0.000000	 0.000000	 0.360648
								CHANNELS 3 Zrotation Xrotation Yrotation
								JOINT RightHandIndex1
								{
									OFFSET	 0.000000	 0.000000	 0.069977
									CHANNELS 3 Zrotation Xrotation Yrotation
									JOINT RightHandIndex2
									{
										OFFSET	 0.000000	 0.000000	 0.052305
										CHANNELS 3 Zrotation Xrotation Yrotation
										JOINT RightHandIndex3
										{
											OFFSET	 0.009002	-0.000782	 0.042196
											CHANNELS 3 Zrotation Xrotation Yrotation
											End Site
											{
												OFFSET	 0.009002	-0.000782	 0.042196
											}
										}
									}
								}
							}
						}
					}
				}
			}
		}
	}
}
MOTION
Frames:    4
Frame Time: 0.03333334
 0.287651	 6.732392	 0.813286	-3.760829	 4.082605	-1.022313	 9.502401	 18.043740	-176.285800	-5.793915	-11.624730	 1.534389	-11.524530	 89.047970	 14.969190	-2.279680	 41.536850	-0.317620	 4.439333	-45.748040	-179.851700	-0.297832	-42.464180	 3.565553	-176.460100	 84.327640	-178.883100	 2.392640	 26.372840	-0.043046	-3.694082	 2.028533	 2.736152	-5.471013	-5.394816	 0.692716	-6.127364	-9.239168	-1.568314	-91.776180	 78.527400	 180.000000	 42.340900	 62.212060	-57.637920	-6.445741	-4.588301	-26.834620	 5.027620	-2.113728	-5.363594	-3.812334	 37.924440	-2.927599	-2.450526	 36.184240	 0.754587	-1.378229	 35.397820	-2.634230	-0.251787	 4.991567	-2.310837	-1.438745	-23.522740	-3.133246	 89.782090	 78.203890	-180.000000	-30.474290	 73.140510	 34.055280	 3.876062	-6.495462	 19.748260	-14.376670	-3.282229	 9.539611	 6.437017	 35.671460	-0.771858	 2.830251	 35.756010	-7.813440	-2.350882	 35.473990	 5.254307
 0.285008	 6.694273	 0.813331	-3.022138	 4.244090	-1.270676	 9.029418	 19.552850	-176.499600	-5.261030	-11.623790	 1.541578	-2.208880	 88.454270	 5.693943	-2.248709	 43.812560	-0.383012	 4.907804	-45.336170	-179.105000	 0.264550	-42.108580	 4.109489	-175.488600	 85.760540	-179.270600	 2.376227	 30.130580	 0.038141	-3.878197	 1.846668	 2.605307	-5.661944	-5.482423	 0.533749	-6.211364	-9.193516	-1.640841	-91.776180	 78.527400	 180.000000	 43.635250	 62.817920	-58.847390	-6.205325	-4.567086	-25.072710	 5.490645	-2.131284	-5.358479	-3.812334	 37.924440	-2.927599	-2.450526	 36.184240	 0.754587	-1.378229	 35.397820	-2.634230	-0.406954	 5.201200	-2.288679	-1.554771	-23.750600	-3.105156	 89.782120	 78.203870	 180.000000	-29.482320	 73.572520	 32.533390	 3.867219	-6.397175	 19.096730	-14.625000	-3.292693	 9.531753	 6.437017	 35.671460	-0.771858	 2.830251	 35.756010	-7.813440	-2.350882	 35.473990	 5.254307
 0.279025	 6.629447	 0.810278	-2.109041	 4.515440	-1.486381	 8.523226	 21.996280	-177.294500	-4.256911	-11.617540	 1.588613	 4.027798	 86.008160	-0.223373	-2.168556	 48.489900	-0.532166	 5.290184	-44.049970	-178.459000	 2.086423	-43.616730	 5.739015	-174.430000	 88.579630	-179.086900	 2.380963	 29.190780	 0.017444	-4.186471	 1.441062	 2.143124	-5.907743	-5.732433	 0.238303	-6.216381	-9.163666	-1.759358	-91.776180	 78.527400	 180.000000	 45.095990	 64.546100	-59.512070	-6.365927	-4.477487	-22.276330	 6.236483	-2.171163	-5.345654	-3.812334	 37.924440	-2.927599	-2.450526	 36.184240	 0.754587	-1.378229	 35.397820	-2.634230	-0.639157	 4.975300	-2.175560	-1.684070	-23.412220	-2.852470	 89.782120	 78.203870	 180.000000	-27.579170	 74.329190	 29.878860	 4.055157	-6.282763	 18.296960	-14.975350	-3.309115	 9.518373	 6.437017	 35.671460	-0.771858	 2.830251	 35.756010	-7.813440	-2.350882	 35.473990	 5.254307
 0.271050	 6.555094	 0.812972	-1.648302	 4.400165	-1.331661	 8.556293	 24.570510	-178.687700	-3.232888	-11.603510	 1.688850	 5.037924	 80.113950	-0.412368	-2.067307	 52.881430	-0.696272	 4.072835	-42.312680	-179.317100	 6.351093	-46.124720	 8.596444	 5.433627	 87.215750	 2.961305	 2.370781	 31.117040	 0.060173	-4.285264	 0.951535	 1.107194	-5.862369	-6.060847	-0.100023	-6.115253	-9.307565	-1.726226	-91.776180	 78.527400	 180.000000	 45.100040	 67.304150	-57.669830	-7.338915	-4.326463	-19.728440	 6.908082	-2.217850	-5.328887	-3.812334	 37.924440	-2.927599	-2.450526	 36.184240	 0.754587	-1.378229	 35.397820	-2.634230	-0.890644	 4.782974	-1.970363	-1.795232	-22.940830	-2.404429	 89.782100	 78.203850	-180.000000	-25.162200	 75.013370	 26.560870	 4.368057	-6.175216	 17.720260	-15.176770	-3.318842	 9.510911	 6.437017	 35.671460	-0.771858	 2.830251	 35.756010	-7.813440	-2.350882	 35.473990	 5.254307
